<svg xmlns="http://www.w3.org/2000/svg" viewBox="0 0 360.91 295.45"><defs><style>.cls-1{fill:#ec6562;}</style></defs><g id="Layer_2" data-name="Layer 2"><g id="Layer_1-2" data-name="Layer 1"><path class="cls-1" d="M184.14,295.45h-6.48a8.2,8.2,0,0,0-.76-.43q-20.22-9.6-39.43-21.1a457.51,457.51,0,0,1-48.33-33c-7.72-6.06-15.21-12.4-22.39-19.09a268.55,268.55,0,0,1-33.4-37,200,200,0,0,1-15.91-25.26c-7.08-13.36-11.76-27.58-15-42.29A96,96,0,0,1,91,.14,93.9,93.9,0,0,1,118.9,2.86a96,96,0,0,1,60.32,45.57c.79,1.39,1,1.37,1.77,0s1.55-2.62,2.36-3.9A95.82,95.82,0,0,1,329.68,25.81a97.72,97.72,0,0,1,20.18,26.78c5.91,11.36,8.65,23.59,10.33,36.16a94.76,94.76,0,0,1-.84,28.58,135.91,135.91,0,0,1-9.41,31.05c-7.52,17.45-17.9,33.11-30,47.64a288.78,288.78,0,0,1-34.64,34.6,399.67,399.67,0,0,1-32,24.46,527.4,527.4,0,0,1-49.27,30C197.39,288.6,190.75,292,184.14,295.45Z"/></g></g></svg>