<svg xmlns="http://www.w3.org/2000/svg" xmlns:xlink="http://www.w3.org/1999/xlink" viewBox="0 0 115.02 55.69"><defs><style>.cls-1,.cls-2,.cls-4{fill:#fff;}.cls-1,.cls-4,.cls-5{stroke:#fff;}.cls-1,.cls-5{stroke-miterlimit:10;}.cls-3{clip-path:url(#clip-path);}.cls-4{stroke-width:1.8px;}.cls-5{fill:none;}</style><clipPath id="clip-path"><rect class="cls-1" x="0.5" y="0.5" width="114.02" height="54.69"/></clipPath></defs><g id="Layer_2" data-name="Layer 2"><g id="Layer_2-2" data-name="Layer 2"><rect class="cls-2" x="0.5" y="0.5" width="114.02" height="54.69"/><g class="cls-3"><path class="cls-4" d="M4.64,1.4A3.17,3.17,0,0,0,1.4,4.64V51.05a3.17,3.17,0,0,0,3.24,3.24H110.38a3.17,3.17,0,0,0,3.24-3.24V4.64a3.17,3.17,0,0,0-3.24-3.24Z"/></g><rect class="cls-5" x="0.5" y="0.5" width="114.02" height="54.69"/><rect class="cls-2" x="0.5" y="0.5" width="114.02" height="54.69"/><g class="cls-3"><path class="cls-1" d="M28.54,40a.63.63,0,0,0-.65.64v5.63a.63.63,0,0,0,.65.64H86.2a.63.63,0,0,0,.65-.64V40.6A.63.63,0,0,0,86.2,40Z"/></g><rect class="cls-5" x="0.5" y="0.5" width="114.02" height="54.69"/><rect class="cls-2" x="0.5" y="0.5" width="114.02" height="54.69"/><g class="cls-3"><path class="cls-1" d="M91,40a.63.63,0,0,0-.65.64v5.63a.63.63,0,0,0,.65.64h14.85a.63.63,0,0,0,.65-.64V40.6a.63.63,0,0,0-.65-.64Z"/></g><rect class="cls-5" x="0.5" y="0.5" width="114.02" height="54.69"/><rect class="cls-2" x="0.5" y="0.5" width="114.02" height="54.69"/><g class="cls-3"><path class="cls-1" d="M9.07,40a.63.63,0,0,0-.64.64v5.63a.63.63,0,0,0,.64.64H23.92a.63.63,0,0,0,.65-.64V40.6a.63.63,0,0,0-.65-.64Z"/></g><rect class="cls-5" x="0.5" y="0.5" width="114.02" height="54.69"/><rect class="cls-2" x="0.5" y="0.5" width="114.02" height="54.69"/><g class="cls-3"><path class="cls-1" d="M39.06,29.58a.63.63,0,0,0-.65.64v5.63a.63.63,0,0,0,.65.64h5.62a.63.63,0,0,0,.65-.64V30.22a.63.63,0,0,0-.65-.64Z"/></g><rect class="cls-5" x="0.5" y="0.5" width="114.02" height="54.69"/><rect class="cls-2" x="0.5" y="0.5" width="114.02" height="54.69"/><g class="cls-3"><path class="cls-1" d="M28.68,29.58a.63.63,0,0,0-.65.64v5.63a.63.63,0,0,0,.65.64H34.3a.63.63,0,0,0,.65-.64V30.22a.63.63,0,0,0-.65-.64Z"/></g><rect class="cls-5" x="0.5" y="0.5" width="114.02" height="54.69"/><rect class="cls-2" x="0.5" y="0.5" width="114.02" height="54.69"/><g class="cls-3"><path class="cls-1" d="M9.07,29.58a.63.63,0,0,0-.64.64v5.63a.63.63,0,0,0,.64.64H23.92a.63.63,0,0,0,.65-.64V30.22a.63.63,0,0,0-.65-.64Z"/></g><rect class="cls-5" x="0.5" y="0.5" width="114.02" height="54.69"/><rect class="cls-2" x="0.5" y="0.5" width="114.02" height="54.69"/><g class="cls-3"><path class="cls-1" d="M49.44,29.58a.63.63,0,0,0-.65.64v5.63a.63.63,0,0,0,.65.64h5.62a.63.63,0,0,0,.65-.64V30.22a.63.63,0,0,0-.65-.64Z"/></g><rect class="cls-5" x="0.5" y="0.5" width="114.02" height="54.69"/><rect class="cls-2" x="0.5" y="0.5" width="114.02" height="54.69"/><g class="cls-3"><path class="cls-1" d="M59.82,29.58a.63.63,0,0,0-.65.64v5.63a.63.63,0,0,0,.65.64h5.62a.63.63,0,0,0,.65-.64V30.22a.63.63,0,0,0-.65-.64Z"/></g><rect class="cls-5" x="0.5" y="0.5" width="114.02" height="54.69"/><rect class="cls-2" x="0.5" y="0.5" width="114.02" height="54.69"/><g class="cls-3"><path class="cls-1" d="M70.2,29.58a.63.63,0,0,0-.65.64v5.63a.63.63,0,0,0,.65.64h5.62a.63.63,0,0,0,.65-.64V30.22a.63.63,0,0,0-.65-.64Z"/></g><rect class="cls-5" x="0.5" y="0.5" width="114.02" height="54.69"/><rect class="cls-2" x="0.5" y="0.5" width="114.02" height="54.69"/><g class="cls-3"><path class="cls-1" d="M80.58,29.58a.63.63,0,0,0-.65.64v5.63a.63.63,0,0,0,.65.64H86.2a.63.63,0,0,0,.65-.64V30.22a.63.63,0,0,0-.65-.64Z"/></g><rect class="cls-5" x="0.5" y="0.5" width="114.02" height="54.69"/><rect class="cls-2" x="0.5" y="0.5" width="114.02" height="54.69"/><g class="cls-3"><path class="cls-1" d="M91,29.58a.63.63,0,0,0-.65.64v5.63a.63.63,0,0,0,.65.64h15a.63.63,0,0,0,.65-.64V30.22a.63.63,0,0,0-.65-.64Z"/></g><rect class="cls-5" x="0.5" y="0.5" width="114.02" height="54.69"/><rect class="cls-2" x="0.5" y="0.5" width="114.02" height="54.69"/><g class="cls-3"><path class="cls-1" d="M34.45,19.2a.63.63,0,0,0-.65.64v5.63a.63.63,0,0,0,.65.64h5.62a.63.63,0,0,0,.65-.64V19.84a.63.63,0,0,0-.65-.64Z"/></g><rect class="cls-5" x="0.5" y="0.5" width="114.02" height="54.69"/><rect class="cls-2" x="0.5" y="0.5" width="114.02" height="54.69"/><g class="cls-3"><path class="cls-1" d="M24.07,19.2a.63.63,0,0,0-.65.64v5.63a.63.63,0,0,0,.65.64h5.62a.63.63,0,0,0,.65-.64V19.84a.63.63,0,0,0-.65-.64Z"/></g><rect class="cls-5" x="0.5" y="0.5" width="114.02" height="54.69"/><rect class="cls-2" x="0.5" y="0.5" width="114.02" height="54.69"/><g class="cls-3"><path class="cls-1" d="M9.07,19.2a.63.63,0,0,0-.64.64v5.63a.63.63,0,0,0,.64.64H19.31a.63.63,0,0,0,.65-.64V19.84a.63.63,0,0,0-.65-.64Z"/></g><rect class="cls-5" x="0.5" y="0.5" width="114.02" height="54.69"/><rect class="cls-2" x="0.5" y="0.5" width="114.02" height="54.69"/><g class="cls-3"><path class="cls-1" d="M44.83,19.2a.63.63,0,0,0-.65.64v5.63a.63.63,0,0,0,.65.64h5.62a.63.63,0,0,0,.65-.64V19.84a.63.63,0,0,0-.65-.64Z"/></g><rect class="cls-5" x="0.5" y="0.5" width="114.02" height="54.69"/><rect class="cls-2" x="0.5" y="0.5" width="114.02" height="54.69"/><g class="cls-3"><path class="cls-1" d="M55.21,19.2a.63.63,0,0,0-.65.64v5.63a.63.63,0,0,0,.65.64h5.62a.63.63,0,0,0,.65-.64V19.84a.63.63,0,0,0-.65-.64Z"/></g><rect class="cls-5" x="0.5" y="0.5" width="114.02" height="54.69"/><rect class="cls-2" x="0.5" y="0.5" width="114.02" height="54.69"/><g class="cls-3"><path class="cls-1" d="M65.59,19.2a.63.63,0,0,0-.65.64v5.63a.63.63,0,0,0,.65.64h5.62a.63.63,0,0,0,.65-.64V19.84a.63.63,0,0,0-.65-.64Z"/></g><rect class="cls-5" x="0.5" y="0.5" width="114.02" height="54.69"/><rect class="cls-2" x="0.5" y="0.5" width="114.02" height="54.69"/><g class="cls-3"><path class="cls-1" d="M76,19.2a.63.63,0,0,0-.65.64v5.63a.63.63,0,0,0,.65.64h5.62a.63.63,0,0,0,.65-.64V19.84a.63.63,0,0,0-.65-.64Z"/></g><rect class="cls-5" x="0.5" y="0.5" width="114.02" height="54.69"/><rect class="cls-2" x="0.5" y="0.5" width="114.02" height="54.69"/><g class="cls-3"><path class="cls-1" d="M86.35,19.2a.63.63,0,0,0-.65.64v5.63a.63.63,0,0,0,.65.64H92a.63.63,0,0,0,.65-.64V19.84A.63.63,0,0,0,92,19.2Z"/></g><rect class="cls-5" x="0.5" y="0.5" width="114.02" height="54.69"/><rect class="cls-2" x="0.5" y="0.5" width="114.02" height="54.69"/><g class="cls-3"><path class="cls-1" d="M96.73,19.2a.63.63,0,0,0-.65.64v5.63a.63.63,0,0,0,.65.64H106a.63.63,0,0,0,.65-.64V19.84a.63.63,0,0,0-.65-.64Z"/></g><rect class="cls-5" x="0.5" y="0.5" width="114.02" height="54.69"/><rect class="cls-2" x="0.5" y="0.5" width="114.02" height="54.69"/><g class="cls-3"><path class="cls-1" d="M59.56,8.82a.63.63,0,0,0-.64.64v5.63a.63.63,0,0,0,.64.64h5.63a.63.63,0,0,0,.65-.64V9.46a.64.64,0,0,0-.65-.65Z"/></g><rect class="cls-5" x="0.5" y="0.5" width="114.02" height="54.69"/><rect class="cls-2" x="0.5" y="0.5" width="114.02" height="54.69"/><g class="cls-3"><path class="cls-1" d="M49.47,8.82a.63.63,0,0,0-.65.64v5.63a.63.63,0,0,0,.65.64h5.62a.63.63,0,0,0,.65-.64V9.46a.64.64,0,0,0-.65-.65Z"/></g><rect class="cls-5" x="0.5" y="0.5" width="114.02" height="54.69"/><rect class="cls-2" x="0.5" y="0.5" width="114.02" height="54.69"/><g class="cls-3"><path class="cls-1" d="M39.37,8.82a.63.63,0,0,0-.65.64v5.63a.63.63,0,0,0,.65.64H45a.63.63,0,0,0,.65-.64V9.46A.64.64,0,0,0,45,8.81Z"/></g><rect class="cls-5" x="0.5" y="0.5" width="114.02" height="54.69"/><rect class="cls-2" x="0.5" y="0.5" width="114.02" height="54.69"/><g class="cls-3"><path class="cls-1" d="M29.27,8.82a.63.63,0,0,0-.65.64v5.63a.63.63,0,0,0,.65.64h5.62a.63.63,0,0,0,.65-.64V9.46a.64.64,0,0,0-.65-.65Z"/></g><rect class="cls-5" x="0.5" y="0.5" width="114.02" height="54.69"/><rect class="cls-2" x="0.5" y="0.5" width="114.02" height="54.69"/><g class="cls-3"><path class="cls-1" d="M19.17,8.82a.63.63,0,0,0-.65.64v5.63a.63.63,0,0,0,.65.64H24.8a.63.63,0,0,0,.64-.64V9.46a.63.63,0,0,0-.64-.65Z"/></g><rect class="cls-5" x="0.5" y="0.5" width="114.02" height="54.69"/><rect class="cls-2" x="0.5" y="0.5" width="114.02" height="54.69"/><g class="cls-3"><path class="cls-1" d="M9.07,8.82a.63.63,0,0,0-.64.64v5.63a.63.63,0,0,0,.64.64H14.7a.63.63,0,0,0,.65-.64V9.46a.64.64,0,0,0-.65-.65Z"/></g><rect class="cls-5" x="0.5" y="0.5" width="114.02" height="54.69"/><rect class="cls-2" x="0.5" y="0.5" width="114.02" height="54.69"/><g class="cls-3"><path class="cls-1" d="M69.66,8.82a.63.63,0,0,0-.65.64v5.63a.63.63,0,0,0,.65.64h5.63a.63.63,0,0,0,.64-.64V9.46a.63.63,0,0,0-.64-.65Z"/></g><rect class="cls-5" x="0.5" y="0.5" width="114.02" height="54.69"/><rect class="cls-2" x="0.5" y="0.5" width="114.02" height="54.69"/><g class="cls-3"><path class="cls-1" d="M79.76,8.82a.63.63,0,0,0-.65.64v5.63a.63.63,0,0,0,.65.64h5.62a.63.63,0,0,0,.65-.64V9.46a.64.64,0,0,0-.65-.65Z"/></g><rect class="cls-5" x="0.5" y="0.5" width="114.02" height="54.69"/><rect class="cls-2" x="0.5" y="0.5" width="114.02" height="54.69"/><g class="cls-3"><path class="cls-1" d="M89.86,8.82a.63.63,0,0,0-.65.64v5.63a.63.63,0,0,0,.65.64h5.62a.63.63,0,0,0,.65-.64V9.46a.64.64,0,0,0-.65-.65Z"/></g><rect class="cls-5" x="0.5" y="0.5" width="114.02" height="54.69"/><rect class="cls-2" x="0.5" y="0.5" width="114.02" height="54.69"/><g class="cls-3"><path class="cls-1" d="M100,8.82a.63.63,0,0,0-.65.64v5.63a.63.63,0,0,0,.65.64h5.62a.63.63,0,0,0,.65-.64V9.46a.64.64,0,0,0-.65-.65Z"/></g><rect class="cls-5" x="0.5" y="0.5" width="114.02" height="54.69"/></g></g></svg>