<svg xmlns="http://www.w3.org/2000/svg" viewBox="0 0 437.61 512.03"><defs><style>.cls-1{fill:#f41616;}</style></defs><g id="Layer_2" data-name="Layer 2"><g id="Layer_1-2" data-name="Layer 1"><g id="Layer_2-2" data-name="Layer 2"><g id="Layer_1-2-2" data-name="Layer 1-2"><path class="cls-1" d="M235.32,0c7.66,1.5,15.39,2.74,23,4.55,20,4.77,39,12.53,57.71,21,20.35,9.17,41.19,17.27,60.59,28.47,36.54,21.08,55.14,53.13,59,94.73a518.59,518.59,0,0,1,1.63,64.89c-.78,23.78-9,45.27-23.48,64.23-2.38,3.12-3.12,5.24-.73,9.1,4.51,7.28,3.46,15.22-.86,22.3-13.28,21.74-29,41.53-48.62,58-10.95,9.19-24.6,12.26-38.28,14.78-4.74.87-9.63,2.22-14.33,1.85-13.9-1.08-26.13,3.74-38.31,9.33A196.92,196.92,0,0,1,216,409a6.74,6.74,0,0,0-5.52,3.54c-12.26,20.78-30,34-53.83,38.75-2.95.58-4.49,2.35-5.91,4.79a88.1,88.1,0,0,1-34,33.68c-4.63,2.54-6.67,6.4-6.47,10.92.22,4.93-1.63,8.3-5,11.35h-7c-1.79-1.48-4.48-2.53-5-4.75-1.43-6.36-5.24-6-10-4.3a12.38,12.38,0,0,1-2.94.54c-4.8.57-8.76-2-9.93-6.42-1.12-4.22.85-8.27,5.15-10.19a31.63,31.63,0,0,1,4.78-1.42c25.6-7,47-19.44,58.5-44.91,1.65-3.66,4.73-5.26,8.73-5.7C173.14,432,190.2,418,199.47,394.47c7.24-18.32,8.69-37.87,10.65-57.25.87-8.64-1.33-15.74-7.23-22.84-11.26-13.54-19.71-28.91-21.76-47-.37-3.3-1.9-3-4-1.57-5.27,3.71-4.32,9.05-3.27,14.1,2.71,13.14,8.08,25.37,13.74,37.44a16.82,16.82,0,0,1,1.3,12c-2.93,11.57-4.4,23.21.38,34.83,1.78,4.33-.59,8.87-4.79,10.74a8.39,8.39,0,0,1-11.07-4c-1.58-3-3.46-4.2-6.7-3.74-17.27,2.46-27.89,8.82-28.42,26.12-.15,4.79-3.65,7.64-8.19,7.78-4.74.14-8.52-2.68-8.77-7.66-.22-4.42-2.57-5.59-6.18-6.3-12.68-2.47-21.56,3.57-28.75,13-3.12,4.08-5.51,8.72-8.26,13.08-3.07,4.88-8,6.4-12.37,3.86-4.21-2.43-5.5-7.2-3-12.14a110.32,110.32,0,0,1,5.63-10c10.92-17.28,29.85-31.92,55-23.81,2,.63,3.11-.08,4.17-1.65,8.65-12.75,21.52-17.73,36.09-19.59,1.53-.19,3.88.48,4-1.83s-2.28-2.11-3.78-2.17c-10.82-.42-21.64-.49-32,3.34-3.75,1.38-7.21,1.37-10.29-1.37s-3.41-5.93-2.39-9.6q.8-2.88,1.41-5.82c1.31-7.06,0-13.2-6.13-17.75-3.74-2.76-5.19-6.46-3.54-11,1.58-4.35,1.42-8.83,1.37-13.34,0-3.41-1.43-5.46-4.7-6.77-8.51-3.39-16.88-7.12-25.34-10.64-1.26-.53-2.49-1.82-4.37-.6.4,1.55.78,3.14,1.2,4.72,4.12,15.52,4.39,30.9-1.6,46.09-3.87,9.82-10.94,17.42-17.23,25.59-10.75,14-22.82,27.3-23.42,46.39-.2,6.33-.43,12.65-.4,19a28.37,28.37,0,0,1-2.18,11.17A242.06,242.06,0,0,0,21,466.57c-2.28,10.39-5.15,20.87-2.55,31.58,1.4,5.72.13,10.11-4.16,13.85h-7c-3.85-2.34-5.65-5.9-6.38-10.23A77.77,77.77,0,0,1,.7,479.38c2.39-20,8.7-38.95,15.83-57.66a20.78,20.78,0,0,0,1.82-6.7c.24-7,.6-14,.83-20.95a62.12,62.12,0,0,1,7.68-28.66c7.07-12.76,16.6-23.71,25.53-35.11,5-6.35,9.35-13,10.91-21.08,3.51-18.2-2-34.55-10.41-50.29-1.44-2.68-4-3.24-6.68-3.78-10.18-2-20.12-4.8-28.64-11.1-11.39-8.44-12.46-20.48-2.89-31,3.61-4,8-7,12-10.49,10.2-8.8,15.24-19.56,12.74-33.27-.93-5.07-2-10.13-2.78-15.22-1.65-10.33-.33-20,7.07-28a79.23,79.23,0,0,1,9.86-9.17c3-2.35,4.18-5,3.42-8.63a64.88,64.88,0,0,1-.66-18.92c1.16-13.62,6.31-24.65,20.31-29.88A46,46,0,0,0,93.81,47.61c21.6-23.06,49.09-34.8,79.13-41.93C183,3.29,193.21,2,203.32,0Zm-9.8,281.29a14.37,14.37,0,0,0,1.67.7c1.63.34,3.26.65,4.9,1,15.38,3,30,7.59,41.81,18.74,2.8,2.65,6.54,4,10.3,4.88s7.08.33,9.93-2.84a102.38,102.38,0,0,0,7.88-10.3c6.75-9.79,15.32-17.09,27.22-19.75,7.73-1.73,15.39-1.42,22.33,2.57a17.09,17.09,0,0,1,9,16.16c0,2.56,2,2.21,3.67,1.58,4.51-1.7,9.2-2.93,13.23-5.79,29.34-20.89,43.06-49.81,42.34-85.31-.33-16.62.28-33.3-1.57-49.91-1.56-14-4-27.68-9.84-40.6-9.92-22.08-27.35-36.64-48.3-47.34-20.63-10.53-42-19.51-63.32-28.54C268,24.37,238.7,14.8,206.77,18.08c-24.73,2.54-48.55,8.27-70.88,19.53-12.84,6.47-23.21,16.07-33.5,25.84-5.55,5.27-5.61,5.21-1.78,11.51,14.21,23.36.57,49.71-26.51,51.21-5.71.31-14.41,7-17.1,13.08,10.19-3.95,18.22-3.31,24.43,3.61,9.69,10.8,15.25,23.35,12.79,38.41-2.82,17.32-23.29,33.08-38.33,16.9-2.3-2.48-3.3-.43-4.36,1.41a64.24,64.24,0,0,1-18.89,21,34.26,34.26,0,0,0-4.42,4c-2.37,2.33-1.9,4.29.77,6.1,3.28,2.23,6.18,2.56,9.41-.38a142.31,142.31,0,0,1,12.43-10c4.23-3.05,8.86-2.25,12,1.59,3,3.67,2.51,8.55-1.22,12.13-1.08,1-2.33,1.89-3.45,2.88-1.52,1.33-1.31,2.44.36,3.56,2.86,1.91,5.49,2.75,8.5,0a92.57,92.57,0,0,1,10.18-8A8.43,8.43,0,0,1,88.9,234c3,3.63,2.77,8-.67,11.74-.9,1-2,1.77-3,2.69-1.16,1.1-3.38,1.65-3,3.58s2.71,2.18,4.25,3.07c2.11,1.23,3.73.26,5.4-1.11,4.89-4,9.7-8.16,14.84-11.82,4.44-3.15,8.81-2.28,12,1.68,2.8,3.51,2.45,8.16-1.14,11.69-2.24,2.22-4.75,4.17-7.2,6.17s-2.56,3.09.65,4.4a143.06,143.06,0,0,0,38.62,9.77c3.56.38,5.5-.39,5.8-4.6a25,25,0,0,1,9.78-18.48c6.7-5.2,14.24-8.36,22.78-4.92,7.76,3.13,10.69,9.55,10.56,17.62,0,.33.07.66.09,1,.24,2.95,1.65,4.23,4.65,3.31,4.3-1.32,8.71-2.36,12.89-4,16.61-6.39,29.52-16.65,35.11-34.36,3.48-11,1.82-12.92-9.56-10.72-10.83,2.1-21.16,5.93-31.62,9.3-19.44,6.25-49.61-3.61-61.36-20-2.36-3.29-2.22-8.4.6-11.07,3.21-3,6.95-4,10.9-1.36,2.2,1.48,4.16,3.32,6.28,4.94,14.06,10.8,28.77,15.87,46.45,8.06a100.33,100.33,0,0,1,31.84-8.16c14.13-1.25,27.33,5.25,25.64,23.55a56.13,56.13,0,0,1-5.6,19.08C256.67,262,243.53,273.75,225.52,281.29Zm-5.05,106.47c-.6,2.39.29,3,2.6,2.47,4-1,8.12-1.81,12.16-2.79,17.58-4.25,33.58-12.77,50.53-18.68,15.65-5.46,26.7-15.66,34.65-29.89,7.65-13.69,13.68-28.12,20-42.41,2.18-4.89.63-6.74-4.79-5.94-7.66,1.13-13.88,4.82-18,11.34-5.06,7.93-11.37,14.7-17.88,21.4C280.59,343,258.43,356.15,230,356.13c-2.56,0-4,1.08-4.47,3.67C223.89,369.13,222.88,378.58,220.47,387.76ZM398.6,295.91c-1.61.44-2.2.43-2.51.71-11.08,10.17-25.13,14.14-39,18.19-4.91,1.44-7.51,4-9.32,8.55a157.88,157.88,0,0,1-20.45,36.47c-.76,1-1.91,1.92-1.61,3.47a2.94,2.94,0,0,0,.92.36,5.7,5.7,0,0,0,1.48-.12c11.66-2.39,22-7.26,30.68-15.64a232.92,232.92,0,0,0,27.75-32c4.3-6.07,8.9-12,12.06-20Zm-159.66,42c10.32-.41,21.9-5.88,32.65-13.53,1.21-.87,3-2.2.54-3.21-7.25-2.95-12.23-9.14-18.9-12.84-10.54-5.84-22.19-7.76-33.9-9.37-1.65-.23-3.94-1.85-4.93.27-.8,1.7,1.18,3.37,2.43,4.56,7.82,7.46,10.83,16.79,11.38,27.32.36,7.07.64,7.05,10.73,6.8Zm-82.87-10c4.38,0,7.54.07,10.7,0,4.41-.13,5.35-1.5,3.54-5.65-3.52-8.08-7-16.16-9.73-24.56a4.53,4.53,0,0,0-4.2-3.56c-7.27-.79-14.5-1.77-21.75-2.67-1.49-.18-3.73-.47-3.72,1.34,0,4.88-2.9,9.83,1.16,14.71a26.33,26.33,0,0,1,6.39,17c0,3.52,1.49,4.91,4.92,4.18,4.64-1.06,9.27-.7,12.69-.82ZM57.18,170.72c-.49,4.79,4.9,8.33,9,12.53,4.42,4.53,7.28,3.75,9.59-2.32,3.06-8.07.07-19.48-6.51-25.19-1.32-1.14-2.67-1.6-4-.45C61.17,158.78,57.41,162.51,57.18,170.72ZM73.44,96.88c.08.9.19,3.22.55,5.5.9,5.83,3.6,7,8.79,4A8.6,8.6,0,0,0,86.59,102c2.92-7.62,1.75-14.68-3.27-21-2.94-3.72-5.2-3.4-7.38,1S73.46,90.79,73.44,96.88Z"/><path class="cls-1" d="M156.33,189.09c-16.12-1.6-30.52-9.32-41.28-23.5-3.61-4.77-6.9-9.78-8.74-15.63-6.85-21.85,8.23-45.66,30.93-48.64,5.61-.73,10.54,1.33,15,4.39a41.18,41.18,0,0,1,8,6.79,104.7,104.7,0,0,0,22.65,20.13c8.66,5.67,13.49,14.54,15.29,24.88a16.47,16.47,0,0,1-4.63,15.1C185.72,180.71,167.92,189.05,156.33,189.09Zm-.85-17.94c8.8-.31,15.53-3.41,21.79-7.75,2.93-2,3.4-4.66,1.95-7.86a22.37,22.37,0,0,0-9.14-10.3A66.86,66.86,0,0,1,151,128.58a63.55,63.55,0,0,0-6.28-6.43c-3.45-3.35-7.11-3.6-11.34-1.17-10.89,6.25-14.2,19.19-7.21,29.64,7.29,10.9,16.48,19.14,29.29,20.53Z"/><path class="cls-1" d="M404.35,179.07c0,2.54.17,4.89,0,7.2-.42,4.74-4,8.38-8.23,8.61s-8.14-2.81-9-7.65c-1.5-8.2-.52-16.59-1.81-24.85-3.08-19.73-7.49-38.89-20.05-55.18a50.34,50.34,0,0,0-16-13.3c-2.68-1.47-5.15-3.17-5.79-6.45-.7-3.55.1-6.76,3-9,3.61-2.74,7.54-2.13,11.29-.15,12.46,6.56,21.68,16.41,28.56,28.52,10.29,18.15,15,38,17.09,58.5C403.86,170,404.78,174.59,404.35,179.07Z"/></g></g></g></g></svg>