<?xml version="1.0" encoding="UTF-8"?>
<svg id="Layer_2" data-name="Layer 2" xmlns="http://www.w3.org/2000/svg" viewBox="0 0 1030.83 451.11">
  <defs>
    <style>
      .cls-1 {
        fill: #fff;
        stroke: #fff;
        stroke-miterlimit: 10;
        stroke-width: 22.61px;
      }
    </style>
  </defs>
  <g id="Layer_1-2" data-name="Layer 1">
    <path class="cls-1" d="m970.38,277.46c4.27,8.03,6.65,16.91,6.65,26.27,0,35.52-34.24,64.32-76.48,64.32-9.76,0-19.11-1.54-27.69-4.35-3.25,40.18-39.13,71.84-82.9,71.84-30.5,0-57.15-15.37-71.62-38.29-17.65,22.92-50.18,38.29-87.41,38.29-23.69,0-45.5-6.24-62.77-16.67-12.32,12.97-28.98,20.93-47.33,20.93-23.5,0-44.26-13.07-56.64-33-19.72,11.26-45.59,18.08-73.93,18.08-36.8,0-69.46-11.51-89.85-29.26-15.48,10.78-36.07,17.36-58.67,17.36-39.02,0-72.05-19.62-83.12-46.66-3,.12-6.03.18-9.1.18-47.43,0-87.83-14.53-103.11-34.86-4.23-5.63-6.53-11.69-6.53-18.02,0-7.75,3.46-15.1,9.65-21.74-2.79-1.34-5.47-2.77-8.01-4.3,0,0-.01,0-.01-.01-18.56-11.14-30.19-27.07-30.19-44.77,0-13.31,6.57-25.62,17.72-35.65-7.39-11.25-11.69-24.7-11.69-39.16,0-39.43,31.97-71.42,71.42-71.42.76,0,1.51.01,2.26.04,7.71-20.89,34.28-36.28,65.88-36.28,2.91,0,5.76.12,8.56.37,8.11-9.38,20.09-15.3,33.46-15.3,17.29,0,32.27,9.91,39.54,24.38h7.72c8.58-27.7,34.39-47.83,64.92-47.83,23.01,0,43.34,11.43,55.62,28.91,9.36-23.34,30.22-39.57,54.44-39.57s46.11,17.06,55.1,41.32c7.56-4.58,16.43-7.21,25.91-7.21,4.41,0,8.67.56,12.75,1.65,19.19-21.64,50.61-35.76,86.13-35.76,43.09,0,80.16,20.78,96.63,50.57,15.23-15.09,37.57-24.62,62.47-24.62,30.44,0,57.07,14.24,71.54,35.48,2,.41,3.97.89,5.92,1.42,10.35-7.52,22.59-13.26,36.2-16.52,48.73-11.69,96.4,12.97,106.51,55.07,3.1,12.91,2.3,25.98-1.69,38.22,24.04,10.22,40.91,34.06,40.91,61.83,0,30.84-20.79,56.82-49.14,64.7Z"/>
  </g>
</svg>